<svg xmlns="http://www.w3.org/2000/svg" viewBox="0 0 140 140" width="140" height="140">
  <defs>
    <linearGradient id="cn_orange" x1="0" y1="0" x2="1" y2="1"><stop offset="0%" stop-color="#f97316"/><stop offset="100%" stop-color="#c2410c"/></linearGradient>
    <linearGradient id="cn_cement" x1="0" y1="0" x2="0" y2="1"><stop offset="0%" stop-color="#e2e8f0"/><stop offset="100%" stop-color="#94a3b8"/></linearGradient>
    <filter id="cn_shadow" x="-10%" y="-10%" width="130%" height="130%"><feDropShadow dx="0" dy="4" stdDeviation="3" flood-opacity="0.18"/></filter>
  </defs>
  <!-- Concrete / Cement Mixer Drum -->
  <g filter="url(#cn_shadow)">
    <!-- Stand -->
    <path d="M30 98 L50 65 L70 98" fill="none" stroke="#475569" stroke-width="4" stroke-linecap="round"/>
    <circle cx="32" cy="98" r="6" fill="#334155"/>
    <circle cx="68" cy="98" r="6" fill="#334155"/>
    <!-- Mixer Drum tilted -->
    <g transform="rotate(-25 50 60)">
      <polygon points="34,44 66,44 74,72 26,72" fill="url(#cn_orange)"/>
      <ellipse cx="50" cy="44" rx="16" ry="7" fill="#ea580c" stroke="#7c2d12" stroke-width="1.5"/>
      <circle cx="50" cy="72" r="8" fill="#334155"/>
    </g>
  </g>
  <!-- Cement Bag / Sack -->
  <g filter="url(#cn_shadow)">
    <rect x="76" y="55" width="42" height="34" rx="6" fill="url(#cn_cement)" stroke="#64748b" stroke-width="1.5"/>
    <rect x="82" y="65" width="30" height="14" rx="2" fill="#dc2626"/>
    <text x="85" y="75" font-family="sans-serif" font-size="8" font-weight="900" fill="#ffffff">CEMENT</text>
  </g>
  <!-- Masonry Bricks & Chrome Valve / Pipe -->
  <g filter="url(#cn_shadow)">
    <rect x="74" y="90" width="22" height="9" rx="1.5" fill="#b45309" stroke="#78350f" stroke-width="1"/>
    <rect x="98" y="90" width="22" height="9" rx="1.5" fill="#b45309" stroke="#78350f" stroke-width="1"/>
    <rect x="86" y="82" width="22" height="8" rx="1.5" fill="#b45309" stroke="#78350f" stroke-width="1"/>
  </g>
</svg>