<svg xmlns="http://www.w3.org/2000/svg" viewBox="0 0 140 140" width="140" height="140">
  <defs>
    <linearGradient id="ee_blue" x1="0" y1="0" x2="1" y2="1"><stop offset="0%" stop-color="#1e40af"/><stop offset="100%" stop-color="#0284c7"/></linearGradient>
    <linearGradient id="ee_orange" x1="0" y1="0" x2="1" y2="1"><stop offset="0%" stop-color="#ea580c"/><stop offset="100%" stop-color="#f59e0b"/></linearGradient>
    <linearGradient id="ee_copper" x1="0" y1="0" x2="1" y2="1"><stop offset="0%" stop-color="#b45309"/><stop offset="100%" stop-color="#f59e0b"/></linearGradient>
    <linearGradient id="ee_metal" x1="0" y1="0" x2="0" y2="1"><stop offset="0%" stop-color="#f1f5f9"/><stop offset="50%" stop-color="#cbd5e1"/><stop offset="100%" stop-color="#94a3b8"/></linearGradient>
    <filter id="ee_shadow" x="-10%" y="-10%" width="130%" height="130%"><feDropShadow dx="0" dy="4" stdDeviation="3" flood-opacity="0.18"/></filter>
  </defs>
  <!-- Electric Motor Body -->
  <g filter="url(#ee_shadow)">
    <!-- Base plate -->
    <rect x="25" y="88" width="55" height="10" rx="3" fill="#334155"/>
    <rect x="22" y="94" width="61" height="5" rx="2" fill="#1e293b"/>
    <!-- Motor Cylinder -->
    <rect x="30" y="44" width="45" height="46" rx="6" fill="url(#ee_blue)"/>
    <!-- Cooling Fins -->
    <line x1="36" y1="46" x2="36" y2="88" stroke="#38bdf8" stroke-width="2" stroke-linecap="round"/>
    <line x1="42" y1="46" x2="42" y2="88" stroke="#38bdf8" stroke-width="2" stroke-linecap="round"/>
    <line x1="48" y1="46" x2="48" y2="88" stroke="#38bdf8" stroke-width="2" stroke-linecap="round"/>
    <line x1="54" y1="46" x2="54" y2="88" stroke="#38bdf8" stroke-width="2" stroke-linecap="round"/>
    <line x1="60" y1="46" x2="60" y2="88" stroke="#38bdf8" stroke-width="2" stroke-linecap="round"/>
    <line x1="66" y1="46" x2="66" y2="88" stroke="#38bdf8" stroke-width="2" stroke-linecap="round"/>
    <!-- Terminal Box on top -->
    <rect x="42" y="34" width="22" height="12" rx="3" fill="#0f172a" stroke="#38bdf8" stroke-width="1"/>
    <!-- Rotor Shaft & Pulley -->
    <rect x="75" y="60" width="14" height="14" rx="2" fill="url(#ee_metal)"/>
    <circle cx="89" cy="67" r="10" fill="#475569" stroke="#94a3b8" stroke-width="2"/>
    <circle cx="89" cy="67" r="4" fill="#0f172a"/>
  </g>
  <!-- Water Pump / Orange unit -->
  <g filter="url(#ee_shadow)">
    <rect x="80" y="70" width="34" height="28" rx="5" fill="url(#ee_orange)"/>
    <circle cx="97" cy="84" r="9" fill="#7c2d12" stroke="#fed7aa" stroke-width="1.5"/>
    <path d="M97 45 L97 70" stroke="url(#ee_metal)" stroke-width="7" stroke-linecap="round"/>
    <rect x="91" y="40" width="12" height="6" rx="2" fill="#475569"/>
    <path d="M114 84 L126 84" stroke="url(#ee_metal)" stroke-width="6" stroke-linecap="round"/>
  </g>
  <!-- Wire spool / cables -->
  <g filter="url(#ee_shadow)">
    <circle cx="22" cy="74" r="14" fill="url(#ee_copper)" stroke="#78350f" stroke-width="1"/>
    <circle cx="22" cy="74" r="7" fill="#f8fafc"/>
    <path d="M22 60 C30 50, 40 40, 50 36" fill="none" stroke="#f59e0b" stroke-width="3" stroke-linecap="round"/>
  </g>
  <!-- Electrical Spark Badge -->
  <g transform="translate(100, 20)">
    <circle cx="14" cy="14" r="14" fill="#fef3c7" stroke="#f59e0b" stroke-width="1.5"/>
    <path d="M15 6 L9 15 L14 15 L13 22 L19 13 L14 13 Z" fill="#d97706"/>
  </g>
</svg>