<svg xmlns="http://www.w3.org/2000/svg" viewBox="0 0 140 140" width="140" height="140">
  <defs>
    <linearGradient id="th_yellow" x1="0" y1="0" x2="1" y2="1"><stop offset="0%" stop-color="#facc15"/><stop offset="100%" stop-color="#ca8a04"/></linearGradient>
    <linearGradient id="th_dark" x1="0" y1="0" x2="0" y2="1"><stop offset="0%" stop-color="#334155"/><stop offset="100%" stop-color="#0f172a"/></linearGradient>
    <filter id="th_shadow" x="-10%" y="-10%" width="130%" height="130%"><feDropShadow dx="0" dy="4" stdDeviation="3" flood-opacity="0.2"/></filter>
  </defs>
  <!-- Cordless Heavy Hammer Drill -->
  <g filter="url(#th_shadow)">
    <!-- Drill Body -->
    <path d="M28 35 L68 35 L68 56 L48 56 L44 88 L26 88 L30 56 L28 56 Z" fill="url(#th_yellow)" stroke="#a16207" stroke-width="1"/>
    <!-- Rubber grip inserts -->
    <rect x="30" y="60" width="14" height="24" rx="3" fill="url(#th_dark)"/>
    <line x1="32" y1="66" x2="42" y2="66" stroke="#64748b" stroke-width="1.5"/>
    <line x1="32" y1="72" x2="42" y2="72" stroke="#64748b" stroke-width="1.5"/>
    <line x1="32" y1="78" x2="42" y2="78" stroke="#64748b" stroke-width="1.5"/>
    <!-- Battery Pack -->
    <rect x="20" y="88" width="28" height="14" rx="3" fill="url(#th_dark)"/>
    <rect x="22" y="98" width="24" height="3" fill="#ef4444"/>
    <!-- Chuck & Drill bit -->
    <rect x="68" y="40" width="14" height="12" rx="2" fill="#475569"/>
    <polygon points="82,44 104,46 104,46 82,48" fill="#cbd5e1" stroke="#64748b" stroke-width="1"/>
  </g>
  <!-- Circular Saw / Angle Grinder Unit -->
  <g filter="url(#th_shadow)">
    <!-- Saw blade guard -->
    <path d="M72 75 A 28 28 0 0 1 124 88 L72 88 Z" fill="url(#th_yellow)"/>
    <!-- Blade disc with teeth -->
    <circle cx="96" cy="88" r="24" fill="#94a3b8" stroke="#475569" stroke-width="2"/>
    <circle cx="96" cy="88" r="8" fill="#334155"/>
    <circle cx="96" cy="88" r="3" fill="#f8fafc"/>
    <!-- Motor housing & handle -->
    <rect x="80" y="60" width="30" height="16" rx="4" fill="url(#th_dark)"/>
    <path d="M106 64 L124 58 L126 68 L108 72 Z" fill="url(#th_dark)"/>
  </g>
  <!-- Wrench tool in background -->
  <g transform="rotate(-30 40 40)">
    <rect x="70" y="10" width="40" height="7" rx="2" fill="#94a3b8" stroke="#64748b" stroke-width="1"/>
    <circle cx="70" cy="13.5" r="9" fill="#94a3b8" stroke="#64748b" stroke-width="1"/>
    <rect x="62" y="10" width="10" height="7" fill="#ffffff"/>
  </g>
</svg>